<?xml version="1.0" encoding="UTF-8" standalone="no"?>
<!DOCTYPE svg PUBLIC "-//W3C//DTD SVG 1.1//EN" "http://www.w3.org/Graphics/SVG/1.1/DTD/svg11.dtd">
<!-- Created with Vectornator (http://vectornator.io/) -->
<svg height="100%" stroke-miterlimit="10" style="fill-rule:nonzero;clip-rule:evenodd;stroke-linecap:round;stroke-linejoin:round;" version="1.1" viewBox="0 0 698.791 228.92" width="100%" xml:space="preserve" xmlns="http://www.w3.org/2000/svg" xmlns:vectornator="http://vectornator.io" xmlns:xlink="http://www.w3.org/1999/xlink">
<defs/>
<g id="SWISS-Logo" vectornator:layerName="SWISS Logo">
<g opacity="1" vectornator:layerName="g">
<path d="M275.496 139.66L423.296 139.76L423.296 19.16L275.496 19.16L275.496 139.66Z" fill="#cc0000" fill-rule="nonzero" opacity="1" stroke="none" vectornator:layerName="polygon"/>
<path d="M431.296 19.16L431.296 139.76L439.895 139.76L469.896 108.96L469.896 19.16L431.296 19.16Z" fill="#cc0000" fill-rule="nonzero" opacity="1" stroke="none" vectornator:layerName="polygon"/>
<path d="M228.896 108.96L258.996 139.66L267.496 139.66L267.496 19.16L228.896 19.16L228.896 108.96Z" fill="#cc0000" fill-rule="nonzero" opacity="1" stroke="none" vectornator:layerName="polygon"/>
</g>
<g opacity="1" vectornator:layerName="Group 1">
<path d="M381.77 32.9026L405.505 50.0282L348.418 127.814L324.683 110.689L381.77 32.9026Z" fill="#ffffff" fill-rule="nonzero" opacity="1" stroke="none" vectornator:layerName="Rectangle 1"/>
<path d="M294.817 89.725L311.902 66.5201L365.21 105.104L348.125 128.309L294.817 89.725Z" fill="#ffffff" fill-rule="nonzero" opacity="1" stroke="none" vectornator:layerName="Rectangle 2"/>
</g>
<g fill="#cc0000" opacity="1" stroke="none" vectornator:layerName="Text 1">
<path d="M206.872 196.904C211.067 196.904 213.944 195.316 215.503 192.141C217.062 188.965 217.841 185.432 217.841 181.541C217.841 178.025 217.278 175.166 216.153 172.963C214.372 169.494 211.302 167.76 206.942 167.76C203.075 167.76 200.263 169.236 198.505 172.189C196.747 175.143 195.868 178.705 195.868 182.877C195.868 186.885 196.747 190.225 198.505 192.897C200.263 195.568 203.052 196.904 206.872 196.904ZM207.118 162.24C211.97 162.24 216.071 163.857 219.423 167.092C222.774 170.326 224.45 175.084 224.45 181.365C224.45 187.436 222.974 192.451 220.021 196.412C217.067 200.373 212.485 202.354 206.274 202.354C201.095 202.354 196.981 200.602 193.935 197.098C190.888 193.594 189.364 188.889 189.364 182.982C189.364 176.654 190.97 171.615 194.181 167.865C197.392 164.115 201.704 162.24 207.118 162.24Z"/>
<path d="M231.974 163.33L237.985 163.33L237.985 168.674C239.767 166.471 241.653 164.889 243.646 163.928C245.638 162.967 247.853 162.486 250.29 162.486C255.634 162.486 259.243 164.35 261.118 168.076C262.149 170.115 262.665 173.033 262.665 176.83L262.665 200.982L256.231 200.982L256.231 177.252C256.231 174.955 255.892 173.104 255.212 171.697C254.087 169.354 252.048 168.182 249.095 168.182C247.595 168.182 246.364 168.334 245.403 168.639C243.669 169.154 242.146 170.186 240.833 171.732C239.778 172.975 239.093 174.258 238.776 175.582C238.46 176.906 238.302 178.799 238.302 181.26L238.302 200.982L231.974 200.982L231.974 163.33Z"/>
<path d="M287.696 162.486C290.368 162.486 292.958 163.113 295.466 164.367C297.974 165.621 299.884 167.244 301.196 169.236C302.462 171.135 303.306 173.35 303.728 175.881C304.103 177.615 304.29 180.381 304.29 184.178L276.692 184.178C276.81 187.998 277.712 191.063 279.399 193.371C281.087 195.68 283.7 196.834 287.239 196.834C290.544 196.834 293.181 195.744 295.149 193.564C296.274 192.299 297.071 190.834 297.54 189.17L303.763 189.17C303.599 190.553 303.054 192.094 302.128 193.793C301.202 195.492 300.165 196.881 299.017 197.959C297.095 199.834 294.716 201.1 291.88 201.756C290.356 202.131 288.634 202.318 286.712 202.318C282.024 202.318 278.052 200.613 274.794 197.203C271.536 193.793 269.907 189.018 269.907 182.877C269.907 176.83 271.548 171.92 274.829 168.147C278.11 164.373 282.399 162.486 287.696 162.486ZM297.786 179.15C297.528 176.408 296.931 174.217 295.993 172.576C294.259 169.529 291.364 168.006 287.31 168.006C284.403 168.006 281.966 169.055 279.997 171.152C278.028 173.25 276.985 175.916 276.868 179.15L297.786 179.15Z"/>
<path d="M334.665 147.932C341.204 147.932 346.278 149.654 349.888 153.1C353.497 156.545 355.501 160.459 355.899 164.842L349.079 164.842C348.306 161.514 346.765 158.877 344.456 156.932C342.147 154.986 338.907 154.014 334.735 154.014C329.649 154.014 325.542 155.801 322.413 159.375C319.284 162.949 317.72 168.428 317.72 175.811C317.72 181.857 319.132 186.762 321.956 190.523C324.78 194.285 328.993 196.166 334.595 196.166C339.751 196.166 343.677 194.186 346.372 190.225C347.802 188.139 348.868 185.397 349.571 181.998L356.392 181.998C355.782 187.436 353.767 191.994 350.345 195.674C346.243 200.104 340.712 202.318 333.751 202.318C327.751 202.318 322.712 200.502 318.634 196.869C313.267 192.064 310.583 184.647 310.583 174.615C310.583 166.998 312.599 160.752 316.63 155.877C320.989 150.58 327.001 147.932 334.665 147.932Z"/>
<path d="M364.056 149.162L370.384 149.162L370.384 168.428C371.884 166.529 373.231 165.193 374.427 164.42C376.466 163.084 379.009 162.416 382.056 162.416C387.517 162.416 391.22 164.326 393.165 168.147C394.22 170.232 394.747 173.127 394.747 176.83L394.747 200.982L388.243 200.982L388.243 177.252C388.243 174.486 387.892 172.459 387.188 171.17C386.04 169.107 383.884 168.076 380.72 168.076C378.095 168.076 375.716 168.979 373.583 170.783C371.45 172.588 370.384 175.998 370.384 181.014L370.384 200.982L364.056 200.982L364.056 149.162Z"/>
<path d="M419.778 162.486C422.45 162.486 425.04 163.113 427.548 164.367C430.056 165.621 431.966 167.244 433.278 169.236C434.544 171.135 435.388 173.35 435.81 175.881C436.185 177.615 436.372 180.381 436.372 184.178L408.774 184.178C408.892 187.998 409.794 191.063 411.481 193.371C413.169 195.68 415.782 196.834 419.321 196.834C422.626 196.834 425.263 195.744 427.231 193.564C428.356 192.299 429.153 190.834 429.622 189.17L435.845 189.17C435.681 190.553 435.136 192.094 434.21 193.793C433.284 195.492 432.247 196.881 431.099 197.959C429.177 199.834 426.798 201.1 423.962 201.756C422.438 202.131 420.716 202.318 418.794 202.318C414.106 202.318 410.134 200.613 406.876 197.203C403.618 193.793 401.989 189.018 401.989 182.877C401.989 176.83 403.63 171.92 406.911 168.147C410.192 164.373 414.481 162.486 419.778 162.486ZM429.868 179.15C429.61 176.408 429.013 174.217 428.075 172.576C426.341 169.529 423.446 168.006 419.392 168.006C416.485 168.006 414.048 169.055 412.079 171.152C410.11 173.25 409.067 175.916 408.95 179.15L429.868 179.15Z"/>
<path d="M458.661 162.24C462.903 162.24 466.354 163.272 469.015 165.334C471.675 167.397 473.274 170.947 473.813 175.986L467.661 175.986C467.286 173.666 466.431 171.738 465.095 170.203C463.759 168.668 461.614 167.9 458.661 167.9C454.63 167.9 451.747 169.869 450.013 173.807C448.888 176.361 448.325 179.514 448.325 183.264C448.325 187.037 449.122 190.213 450.716 192.791C452.31 195.369 454.817 196.658 458.239 196.658C460.864 196.658 462.944 195.856 464.479 194.25C466.015 192.645 467.075 190.447 467.661 187.658L473.813 187.658C473.11 192.65 471.353 196.301 468.54 198.609C465.728 200.918 462.13 202.072 457.747 202.072C452.825 202.072 448.899 200.273 445.97 196.676C443.04 193.078 441.575 188.584 441.575 183.193C441.575 176.584 443.181 171.439 446.392 167.76C449.603 164.08 453.692 162.24 458.661 162.24Z"/>
<path d="M480.001 149.338L486.083 149.338L486.083 179.326L502.325 163.33L510.411 163.33L495.997 177.428L511.22 200.982L503.134 200.982L491.392 181.998L486.083 186.85L486.083 200.982L480.001 200.982L480.001 149.338Z"/>
</g>
</g>
</svg>
